<svg xmlns="http://www.w3.org/2000/svg" viewBox="0 0 512 512"><path d="M252.864 216.448l-63.979-64c-4.16-4.16-10.923-4.16-15.083 0s-4.16 10.923 0 15.083l45.781 45.803H32c-5.888 0-10.667 4.779-10.667 10.667S26.112 234.667 32 234.667h187.584l-45.781 45.781c-4.16 4.16-4.16 10.923 0 15.083a10.56 10.56 0 0 0 7.531 3.136c2.731 0 5.461-1.045 7.552-3.115l63.979-63.979a11.044 11.044 0 0 0 2.325-3.477 10.58 10.58 0 0 0 0-8.149 10.916 10.916 0 0 0-2.326-3.499z"/><path d="M249.408 274.475c-3.989-1.685-8.576-.747-11.627 2.304l-33.835 33.856c-12.053 12.096-33.152 12.096-45.248 0-10.197-10.176-12.203-26.048-4.907-38.613 1.899-3.307 1.92-7.36 0-10.667a10.594 10.594 0 0 0-9.216-5.355h-5.909c-5.888 0-10.667 4.779-10.667 10.667v128C128 424.064 151.936 448 181.333 448h64c5.888 0 10.667-4.779 10.667-10.667V284.331c0-4.31-2.603-8.214-6.592-9.856zM444.608 0a45.65 45.65 0 0 0-18.155 3.733L305.237 55.68a45.994 45.994 0 0 0-27.904 42.325v367.936c0 25.387 20.672 46.059 46.059 46.059a45.65 45.65 0 0 0 18.155-3.733l121.216-51.947a45.994 45.994 0 0 0 27.904-42.325V46.059C490.667 20.672 469.995 0 444.608 0zM341.333 288c0 5.888-4.779 10.667-10.667 10.667S320 293.888 320 288v-42.667c0-5.888 4.779-10.667 10.667-10.667s10.667 4.779 10.667 10.667V288z"/><path d="M333.205 20.459c4.651-1.984 7.275-6.997 6.251-11.947A10.669 10.669 0 0 0 329.003 0h-147.67C151.936 0 128 23.936 128 53.333v128c0 5.888 4.779 10.667 10.667 10.667h5.909c.149 0 .299-.021.427 0 5.888 0 10.667-4.779 10.667-10.667 0-2.837-1.109-5.44-2.944-7.339-5.995-12.224-3.669-26.965 5.995-36.629 12.053-12.096 33.152-12.096 45.248 0l33.835 33.835c3.072 3.072 7.659 3.989 11.627 2.304 3.968-1.621 6.571-5.525 6.571-9.835V98.005a67.325 67.325 0 0 1 40.853-61.952l36.35-15.594z"/></svg>