<svg aria-hidden="true" style="position: absolute; width: 0; height: 0; overflow: hidden;" version="1.1" xmlns="http://www.w3.org/2000/svg" xmlns:xlink="http://www.w3.org/1999/xlink">
<defs>
<symbol id="icon-clock" viewBox="0 0 33 32">
<title>clock</title>
<path d="M31.732 9.81c-1.635-3.815-4.694-6.875-8.509-8.509 1.032-0.812 2.331-1.301 3.746-1.301 3.349 0 6.063 2.715 6.063 6.063 0 1.415-0.488 2.714-1.301 3.746zM31.484 16.516c0 3.976-1.561 7.58-4.091 10.261l2.094 2.093c0.277 0.278 0.448 0.66 0.448 1.083 0 0.845-0.685 1.531-1.531 1.531-0.423 0-0.806-0.171-1.083-0.449l-2.248-2.248c-2.427 1.695-5.373 2.697-8.557 2.697-3.178 0-6.119-0.997-8.543-2.687l-2.233 2.233c-0.281 0.281-0.668 0.454-1.095 0.454-0.855 0-1.548-0.694-1.548-1.549 0-0.426 0.173-0.814 0.453-1.094l2.077-2.077c-2.522-2.679-4.078-6.278-4.078-10.247 0-8.266 6.701-14.968 14.968-14.968s14.968 6.701 14.968 14.968zM16.516 4.645c-6.556 0-11.871 5.314-11.871 11.871 0 6.556 5.315 11.871 11.871 11.871s11.871-5.315 11.871-11.871c0-6.557-5.315-11.871-11.871-11.871zM22.71 18.065h-6.194c-0.855 0-1.548-0.694-1.548-1.548v-8.258c0-0.855 0.694-1.548 1.548-1.548s1.548 0.694 1.548 1.548v6.709h4.645c0.855 0 1.548 0.694 1.548 1.549 0 0.855-0.694 1.548-1.548 1.548zM1.329 10.018c-0.83-1.053-1.329-2.379-1.329-3.825 0-3.421 2.773-6.194 6.194-6.194 1.445 0 2.772 0.499 3.826 1.329-3.897 1.669-7.021 4.794-8.691 8.69z"></path>
</symbol>
<symbol id="icon-home" viewBox="0 0 33 32">
<title>home</title>
<path d="M33.032 17.032c0 0.855-0.694 1.547-1.548 1.547-0.408 0-0.776-0.16-1.053-0.418l-0.003 0.004-13.912-13.911-13.881 13.88c-0.28 0.276-0.664 0.445-1.087 0.445-0.855 0-1.548-0.693-1.548-1.547 0-0.439 0.183-0.834 0.476-1.116l14.924-14.925c0.282-0.292 0.677-0.475 1.116-0.475v0 0c0 0 0 0 0.001 0 0.027 0 0.054 0 0.082 0.002 0.004 0 0.008 0.001 0.012 0.001 0.024 0.001 0.046 0.003 0.070 0.005 0.001 0 0.002 0 0.004 0.001 0.379 0.041 0.716 0.219 0.963 0.483l0.001-0.001 6.092 6.092v-1.422c0-0.856 0.693-1.548 1.548-1.548 0.855 0 1.548 0.693 1.548 1.548v4.519l5.779 5.779-0.004 0.004c0.258 0.277 0.419 0.645 0.419 1.053zM29.935 19.613v10.839c0 0.855-0.694 1.548-1.548 1.548h-3.097v-12.387h-6.194v12.387h-14.452c-0.855 0-1.548-0.694-1.548-1.548v-10.839l13.419-13.419 13.419 13.419zM13.935 19.613h-6.194v6.194h6.194v-6.194z"></path>
</symbol>
</defs>
</svg>
