<svg xmlns="http://www.w3.org/2000/svg">
  <defs>
    <symbol viewBox="0 0 512 512" id="logout-icon">
      <path d="M510.371 226.513c-1.088-2.603-2.645-4.971-4.629-6.955l-63.979-63.979c-8.341-8.32-21.824-8.32-30.165 0-8.341 8.341-8.341 21.845 0 30.165l27.584 27.584H320.013c-11.797 0-21.333 9.557-21.333 21.333s9.536 21.333 21.333 21.333h119.168l-27.584 27.584c-8.341 8.341-8.341 21.845 0 30.165 4.16 4.181 9.621 6.251 15.083 6.251s10.923-2.069 15.083-6.251l63.979-63.979c1.984-1.963 3.541-4.331 4.629-6.955a21.356 21.356 0 0 0 0-16.296z"/><path d="M362.68 298.667c-11.797 0-21.333 9.557-21.333 21.333v106.667h-85.333V85.333c0-9.408-6.187-17.728-15.211-20.437l-74.091-22.229h174.635v106.667c0 11.776 9.536 21.333 21.333 21.333s21.333-9.557 21.333-21.333v-128C384.013 9.557 374.477 0 362.68 0H21.347c-.768 0-1.451.32-2.197.405-1.003.107-1.92.277-2.88.512a21.476 21.476 0 0 0-6.165 2.645c-.469.299-1.045.32-1.493.661-.172.129-.236.364-.407.492-2.325 1.834-4.266 4.074-5.674 6.741-.299.576-.363 1.195-.597 1.792-.683 1.621-1.429 3.2-1.685 4.992-.107.64.085 1.237.064 1.856-.021.427-.299.811-.299 1.237V448c0 10.176 7.189 18.923 17.152 20.907l213.333 42.667c1.387.299 2.795.427 4.181.427a21.31 21.31 0 0 0 13.525-4.843 21.354 21.354 0 0 0 7.808-16.491v-21.333H362.68c11.797 0 21.333-9.557 21.333-21.333V320c0-11.776-9.536-21.333-21.333-21.333z"/>
    </symbol>
    <symbol viewBox="0 0 512 512" id="login-icon">
      <path d="M252.864 216.448l-63.979-64c-4.16-4.16-10.923-4.16-15.083 0s-4.16 10.923 0 15.083l45.781 45.803H32c-5.888 0-10.667 4.779-10.667 10.667S26.112 234.667 32 234.667h187.584l-45.781 45.781c-4.16 4.16-4.16 10.923 0 15.083a10.56 10.56 0 0 0 7.531 3.136c2.731 0 5.461-1.045 7.552-3.115l63.979-63.979a11.044 11.044 0 0 0 2.325-3.477 10.58 10.58 0 0 0 0-8.149 10.916 10.916 0 0 0-2.326-3.499z"/><path d="M249.408 274.475c-3.989-1.685-8.576-.747-11.627 2.304l-33.835 33.856c-12.053 12.096-33.152 12.096-45.248 0-10.197-10.176-12.203-26.048-4.907-38.613 1.899-3.307 1.92-7.36 0-10.667a10.594 10.594 0 0 0-9.216-5.355h-5.909c-5.888 0-10.667 4.779-10.667 10.667v128C128 424.064 151.936 448 181.333 448h64c5.888 0 10.667-4.779 10.667-10.667V284.331c0-4.31-2.603-8.214-6.592-9.856zM444.608 0a45.65 45.65 0 0 0-18.155 3.733L305.237 55.68a45.994 45.994 0 0 0-27.904 42.325v367.936c0 25.387 20.672 46.059 46.059 46.059a45.65 45.65 0 0 0 18.155-3.733l121.216-51.947a45.994 45.994 0 0 0 27.904-42.325V46.059C490.667 20.672 469.995 0 444.608 0zM341.333 288c0 5.888-4.779 10.667-10.667 10.667S320 293.888 320 288v-42.667c0-5.888 4.779-10.667 10.667-10.667s10.667 4.779 10.667 10.667V288z"/><path d="M333.205 20.459c4.651-1.984 7.275-6.997 6.251-11.947A10.669 10.669 0 0 0 329.003 0h-147.67C151.936 0 128 23.936 128 53.333v128c0 5.888 4.779 10.667 10.667 10.667h5.909c.149 0 .299-.021.427 0 5.888 0 10.667-4.779 10.667-10.667 0-2.837-1.109-5.44-2.944-7.339-5.995-12.224-3.669-26.965 5.995-36.629 12.053-12.096 33.152-12.096 45.248 0l33.835 33.835c3.072 3.072 7.659 3.989 11.627 2.304 3.968-1.621 6.571-5.525 6.571-9.835V98.005a67.325 67.325 0 0 1 40.853-61.952l36.35-15.594z"/>
    </symbol>
  </defs>
</svg>
